# xmcd
#
# Track frame offsets: 
#        150
#        22172
#        44305
#        71855
#        92556
#        110952
#        128818
#        148503
#        165613
#        179710
#        196251
#        218367
#
# Disc length: 3146 seconds
#
# Revision: 0
# Processed by: cddbd v1.4PL0 Copyright (c) Steve Scherf et al.
# Submitted via: ExactAudioCopy v0.90b4
#
DISCID=b30c480c
DTITLE=Pigram Brothers - Jiir
DYEAR=2001
DGENRE=Folk/Rock
TTITLE0=Johnny Walker's Shoes
TTITLE1=Dry River Bed
TTITLE2=My Land
TTITLE3=Riverman
TTITLE4=Rosita
TTITLE5=Villaret
TTITLE6=Where I B'long
TTITLE7=Desert Wind
TTITLE8=Hill 22
TTITLE9=Wrong World
TTITLE10=Wind Of Freedom
TTITLE11=End Of Time
EXTD=
EXTT0=
EXTT1=
EXTT2=
EXTT3=
EXTT4=
EXTT5=
EXTT6=
EXTT7=
EXTT8=
EXTT9=
EXTT10=
EXTT11=
PLAYORDER=
